<svg xmlns="http://www.w3.org/2000/svg" width="42" height="42" viewBox="0 0 42 42">
    <g fill="#00F" fill-rule="nonzero">
        <path d="M22.313 8.75h-10.5a1.313 1.313 0 0 0 0 2.625h10.5a1.313 1.313 0 0 0 0-2.625zM23.625 16.188c0-.725-.588-1.313-1.313-1.313h-14a1.313 1.313 0 0 0 0 2.625h14c.725 0 1.313-.588 1.313-1.313zM8.313 21a1.313 1.313 0 0 0 0 2.625h9.624a1.313 1.313 0 0 0 0-2.625H8.313z"/>
        <path d="M19.775 30.896a.441.441 0 0 0-.404-.271H4.375a.875.875 0 0 1-.875-.875V4.375c0-.483.392-.875.875-.875h22.75c.483 0 .875.392.875.875v17.622a.437.437 0 0 0 .747.308l2.24-2.24a1.75 1.75 0 0 0 .513-1.237V3.5A3.5 3.5 0 0 0 28 0H3.5A3.5 3.5 0 0 0 0 3.5v27.125a3.5 3.5 0 0 0 3.5 3.5h13.769c.384 0 .724-.25.837-.618a3.385 3.385 0 0 1 .874-1.433l.7-.7a.437.437 0 0 0 .095-.478zM21.108 35.23a.44.44 0 0 0-.738.223l-1.099 5.497a.875.875 0 0 0 1.032 1.032l5.5-1.1a.437.437 0 0 0 .223-.739l-4.918-4.914zM40.649 20.589a4.585 4.585 0 0 0-6.475 0L22.799 31.964a.875.875 0 0 0 0 1.237l5.25 5.25a.875.875 0 0 0 1.237 0l11.375-11.375a4.587 4.587 0 0 0-.012-6.487z"/>
    </g>
</svg>
