<?xml version="1.0" encoding="UTF-8"?>
<svg width="100px" height="100px" viewBox="0 0 100 100" version="1.1" xmlns="http://www.w3.org/2000/svg" xmlns:xlink="http://www.w3.org/1999/xlink">
    <!-- Generator: Sketch 58 (84663) - https://sketch.com -->
    <title>Group 14</title>
    <desc>Created with Sketch.</desc>
    <g id="Page-1" stroke="none" stroke-width="1" fill="none" fill-rule="evenodd">
        <g id="Landing" transform="translate(-816.000000, -2411.000000)" fill-rule="nonzero">
            <g id="Group-14" transform="translate(816.000000, 2411.000000)">
                <g id="Group-3" opacity="0.778878348" fill="#F1F1F1">
                    <path d="M50,0 C77.6142375,0 100,22.2458515 100,49.6875 C100,77.1291485 77.6142375,99.375 50,99.375 L0,99.375 L0,49.6875 C0,22.2458515 22.3857625,0 50,0 Z" id="Shape"></path>
                </g>
                <g id="content-typing-machine" transform="translate(29.000000, 38.000000)" fill="#0000FF">
                    <path d="M37.625,39.375 L36.75,39.375 L36.75,29.55925 C36.6945627,27.1968967 34.7374776,25.3251405 32.375,25.375 L26.572,25.375 L25.5815,27.356 C24.7138398,29.0913588 22.9401815,30.1875508 21,30.1875508 C19.0598185,30.1875508 17.2861602,29.0913588 16.4185,27.356 L15.428,25.375 L9.625,25.375 C7.26252238,25.3251405 5.30543726,27.1968967 5.25,29.55925 L5.25,39.375 L4.375,39.375 C3.65012627,39.375 3.0625,39.9626263 3.0625,40.6875 C3.0625,41.4123737 3.65012627,42 4.375,42 L37.625,42 C38.3498737,42 38.9375,41.4123737 38.9375,40.6875 C38.9375,39.9626263 38.3498737,39.375 37.625,39.375 Z M11.8125,35 C11.8125,34.0335017 12.5960017,33.25 13.5625,33.25 C14.5289983,33.25 15.3125,34.0335017 15.3125,35 C15.3125,35.9664983 14.5289983,36.75 13.5625,36.75 C12.5960017,36.75 11.8125,35.9664983 11.8125,35 Z M26.6875,35 C26.6875,34.0335017 27.4710017,33.25 28.4375,33.25 C29.4039983,33.25 30.1875,34.0335017 30.1875,35 C30.1875,35.9664983 29.4039983,36.75 28.4375,36.75 C27.4710017,36.75 26.6875,35.9664983 26.6875,35 Z M21,33.25 C21.9664983,33.25 22.75,34.0335017 22.75,35 C22.75,35.9664983 21.9664983,36.75 21,36.75 C20.0335017,36.75 19.25,35.9664983 19.25,35 C19.25,34.0335017 20.0335017,33.25 21,33.25 Z" id="Shape"></path>
                    <path d="M40.25,21.875 L40.25,18.8125 C40.25,17.8460017 39.4664983,17.0625 38.5,17.0625 C37.7111267,17.0689994 37.0269052,17.6091743 36.8375,18.375 L5.1625,18.375 C4.97309484,17.6091743 4.28887332,17.0689994 3.5,17.0625 C2.53350169,17.0625 1.75,17.8460017 1.75,18.8125 L1.75,21.875 C0.783501688,21.875 0,22.6585017 0,23.625 C0,24.5914983 0.783501688,25.375 1.75,25.375 L1.75,29.3125 C1.75,30.2789983 2.53350169,31.0625 3.5,31.0625 C4.46649831,31.0625 5.25,30.2789983 5.25,29.3125 L5.25,22.3125 C5.25,22.0708754 5.44587542,21.875 5.6875,21.875 L36.3125,21.875 C36.5541246,21.875 36.75,22.0708754 36.75,22.3125 L36.75,29.3125 C36.75,30.2789983 37.5335017,31.0625 38.5,31.0625 C39.4664983,31.0625 40.25,30.2789983 40.25,29.3125 L40.25,25.375 C41.2164983,25.375 42,24.5914983 42,23.625 C42,22.6585017 41.2164983,21.875 40.25,21.875 Z" id="Path"></path>
                    <path d="M8.75,16.625 C9.71649831,16.625 10.5,15.8414983 10.5,14.875 L10.5,3.9375 C10.5,3.69587542 10.6958754,3.5 10.9375,3.5 L28.7,3.5 C28.8113201,3.49982013 28.9184532,3.54242274 28.99925,3.619 L31.36175,5.845 C31.4503219,5.9271787 31.5004559,6.04267734 31.5,6.1635 L31.5,14.875 C31.5,15.8414983 32.2835017,16.625 33.25,16.625 C34.2164983,16.625 35.0000128,15.8414983 35.0000128,14.875 L35.0000128,5.9745 C35.0025149,5.04577999 34.6332212,4.15468581 33.9745,3.5 L31.3495,1.0255 C30.6948142,0.366778757 29.80372,-0.0025148674 28.875,-1.27608812e-05 L10.5,-1.27608812e-05 C8.56700338,-1.27608812e-05 7,1.56700338 7,3.5 L7,14.875 C7,15.8414983 7.78350169,16.625 8.75,16.625 Z" id="Path"></path>
                </g>
            </g>
        </g>
    </g>
</svg>