<?xml version="1.0" encoding="UTF-8"?>
<svg width="100px" height="100px" viewBox="0 0 100 100" version="1.1" xmlns="http://www.w3.org/2000/svg" xmlns:xlink="http://www.w3.org/1999/xlink">
    <!-- Generator: Sketch 58 (84663) - https://sketch.com -->
    <title>Group 19</title>
    <desc>Created with Sketch.</desc>
    <g id="Page-1" stroke="none" stroke-width="1" fill="none" fill-rule="evenodd">
        <g id="Landing" transform="translate(-817.000000, -2678.000000)" fill-rule="nonzero">
            <g id="Group-19" transform="translate(817.000000, 2678.000000)">
                <g id="Group-2-Copy" opacity="0.778878348" fill="#F1F1F1">
                    <polygon id="Shape" points="50 0 100 50 50 100 0 50"></polygon>
                </g>
                <g id="browser-page-account" transform="translate(27.000000, 31.000000)" fill="#0000FF">
                    <path d="M45.8181818,5.72727273 C45.8181818,2.56418734 43.2539945,1.63424829e-13 40.0909091,1.63424829e-13 L5.72727273,1.63424829e-13 C2.56418734,1.63424829e-13 8.52651283e-14,2.56418734 8.52651283e-14,5.72727273 L8.52651283e-14,33.4090909 C8.52651283e-14,36.5721763 2.56418734,39.1363636 5.72727273,39.1363636 L40.0909091,39.1363636 C43.2539945,39.1363636 45.8181818,36.5721763 45.8181818,33.4090909 L45.8181818,5.72727273 Z M18.4303636,3.81818182 C18.7547277,3.22969958 19.3734996,2.86421791 20.0454545,2.86421791 C20.7174094,2.86421791 21.3361814,3.22969958 21.6605455,3.81818182 C21.8442123,4.10338889 21.9459196,4.43360759 21.9545455,4.77272727 C21.9459196,5.11184696 21.8442123,5.44206566 21.6605455,5.72727273 C21.3361814,6.31575497 20.7174094,6.68123663 20.0454545,6.68123663 C19.3734996,6.68123663 18.7547277,6.31575497 18.4303636,5.72727273 C18.2466968,5.44206566 18.1449895,5.11184696 18.1363636,4.77272727 C18.1449895,4.43360759 18.2466968,4.10338889 18.4303636,3.81818182 L18.4303636,3.81818182 Z M11.7485455,3.81818182 C12.0729095,3.22969958 12.6916815,2.86421791 13.3636364,2.86421791 C14.0355913,2.86421791 14.6543632,3.22969958 14.9787273,3.81818182 C15.1623941,4.10338889 15.2641014,4.43360759 15.2727273,4.77272727 C15.2641014,5.11184696 15.1623941,5.44206566 14.9787273,5.72727273 C14.6543632,6.31575497 14.0355913,6.68123663 13.3636364,6.68123663 C12.6916815,6.68123663 12.0729095,6.31575497 11.7485455,5.72727273 C11.5648787,5.44206566 11.4631713,5.11184696 11.4545455,4.77272727 C11.4631713,4.43360759 11.5648787,4.10338889 11.7485455,3.81818182 Z M4.94836364,3.99381818 C5.25419094,3.30944314 5.93222792,2.86737498 6.68181818,2.86363636 C7.35179165,2.87136263 7.96704629,3.2349883 8.29690909,3.81818182 C8.48057589,4.10338889 8.58228325,4.43360759 8.59090909,4.77272727 C8.58228325,5.11184696 8.48057589,5.44206566 8.29690909,5.72727273 C7.97254504,6.31575497 7.35377308,6.68123663 6.68181818,6.68123663 C6.00986329,6.68123663 5.39109132,6.31575497 5.06672727,5.72727273 C4.88306048,5.44206566 4.78135312,5.11184696 4.77272727,4.77272727 C4.77448138,4.50347039 4.83439386,4.23777153 4.94836364,3.99381818 L4.94836364,3.99381818 Z M42,33.4090909 C42,34.4634527 41.1452709,35.3181818 40.0909091,35.3181818 L5.72727273,35.3181818 C4.67291093,35.3181818 3.81818182,34.4634527 3.81818182,33.4090909 L3.81818182,10.0227273 C3.81818182,9.75913682 4.0318641,9.54545455 4.29545455,9.54545455 L41.5227273,9.54545455 C41.7863177,9.54545455 42,9.75913682 42,10.0227273 L42,33.4090909 Z" id="Shape"></path>
                    <path d="M10.1582727,31.5 L23.2508182,31.5 C24.6053828,31.5352936 25.7332096,30.4680843 25.7727273,29.1136364 L25.7727273,15.75 C25.7321754,14.3960154 24.6049772,13.3294009 23.2508182,13.3636364 L10.1582727,13.3636364 C8.80411375,13.3294009 7.67691548,14.3960154 7.63636364,15.75 L7.63636364,29.1136364 C7.67588135,30.4680843 8.80370812,31.5352936 10.1582727,31.5 Z M10.5,16.7045455 C10.5,16.440955 10.7136823,16.2272727 10.9772727,16.2272727 L22.4318182,16.2272727 C22.6954086,16.2272727 22.9090909,16.440955 22.9090909,16.7045455 L22.9090909,28.1590909 C22.9090909,28.4226814 22.6954086,28.6363652 22.4318182,28.6363652 L21.6853636,28.6363652 C21.4701691,28.636911 21.2814475,28.4928248 21.2252727,28.2850909 C20.7810372,26.1008666 18.9288326,24.4848806 16.7045455,24.3409091 C14.4802583,24.4848806 12.6280537,26.1008666 12.1838182,28.2850909 C12.1276434,28.4928248 11.9389218,28.636911 11.7237273,28.6363652 L10.9772727,28.6363652 C10.7136823,28.6363652 10.5,28.4226814 10.5,28.1590909 L10.5,16.7045455 Z" id="Shape"></path>
                    <circle id="Oval" cx="16.7045455" cy="21.4772727" r="2.86363636"></circle>
                    <path d="M28.6363636,15.75 C28.6363636,16.5407713 29.2774105,17.1818182 30.0681818,17.1818182 L37.7045455,17.1818182 C38.4953168,17.1818182 39.1363636,16.5407713 39.1363636,15.75 C39.1363636,14.9592287 38.4953168,14.3181818 37.7045455,14.3181818 L30.0681818,14.3181818 C29.2774105,14.3181818 28.6363636,14.9592287 28.6363636,15.75 Z" id="Path"></path>
                    <path d="M30.0681818,23.8636364 L37.7045455,23.8636364 C38.4953168,23.8636364 39.1363636,23.2225895 39.1363636,22.4318182 C39.1363636,21.6410468 38.4953168,21 37.7045455,21 L30.0681818,21 C29.2774105,21 28.6363636,21.6410468 28.6363636,22.4318182 C28.6363636,23.2225895 29.2774105,23.8636364 30.0681818,23.8636364 Z" id="Path"></path>
                    <path d="M30.0681818,30.5454545 L37.7045455,30.5454545 C38.4953168,30.5454545 39.1363636,29.9044077 39.1363636,29.1136364 C39.1363636,28.322865 38.4953168,27.6818182 37.7045455,27.6818182 L30.0681818,27.6818182 C29.2774105,27.6818182 28.6363636,28.322865 28.6363636,29.1136364 C28.6363636,29.9044077 29.2774105,30.5454545 30.0681818,30.5454545 Z" id="Path"></path>
                </g>
            </g>
        </g>
    </g>
</svg>