<svg xmlns="http://www.w3.org/2000/svg" width="42" height="42" viewBox="0 0 42 42">
    <g fill="#00F" fill-rule="nonzero">
        <path d="M2.168 36.357h6.07a.44.44 0 0 0 .306-.121.407.407 0 0 0 .127-.296v-3.335c0-.92-.776-1.667-1.734-1.667H3.468c-.957 0-1.734.747-1.734 1.667v3.335c0 .111.045.217.127.296a.44.44 0 0 0 .307.121zM13.874 22.6c-.958 0-1.735.747-1.735 1.668V35.94c0 .111.045.217.127.296a.44.44 0 0 0 .307.121h6.07a.44.44 0 0 0 .307-.121.407.407 0 0 0 .126-.296V24.268c0-.92-.776-1.668-1.734-1.668h-3.468zM24.279 25.935c-.958 0-1.734.747-1.734 1.668v8.337c0 .111.045.217.126.296a.44.44 0 0 0 .307.121h6.07a.44.44 0 0 0 .307-.121.407.407 0 0 0 .126-.296v-8.337c0-.921-.776-1.668-1.734-1.668H24.28zM34.684 14.263c-.958 0-1.734.747-1.734 1.668v20.01c0 .11.045.216.126.295a.44.44 0 0 0 .307.121h6.07a.44.44 0 0 0 .307-.121.407.407 0 0 0 .126-.296V15.93c0-.92-.776-1.667-1.734-1.667h-3.468zM36.418.923a3.52 3.52 0 0 0-2.72 1.266 3.237 3.237 0 0 0-.655 2.836.412.412 0 0 1-.093.369L27.3 11.73a.45.45 0 0 1-.437.134 3.483 3.483 0 0 0-.85-.102 3.54 3.54 0 0 0-2.457.985.44.44 0 0 1-.444.1l-3.777-1.209a.425.425 0 0 1-.294-.333c-.256-1.73-1.858-2.977-3.672-2.857-1.813.12-3.222 1.566-3.23 3.314 0 .26.032.52.096.774a.408.408 0 0 1-.146.416l-5.03 4.036a.456.456 0 0 1-.453.061c-1.405-.597-3.05-.235-4.045.89a3.234 3.234 0 0 0-.265 3.98c.838 1.237 2.422 1.798 3.894 1.377 1.472-.42 2.481-1.72 2.481-3.197 0-.26-.032-.519-.094-.772a.408.408 0 0 1 .144-.417l5.03-4.035a.447.447 0 0 1 .452-.062c1.313.556 2.846.277 3.857-.702a.446.446 0 0 1 .446-.1l3.775 1.208c.154.05.266.178.291.333.231 1.753 1.845 3.028 3.678 2.908 1.834-.121 3.251-1.596 3.231-3.363 0-.448-.094-.891-.277-1.303a.406.406 0 0 1 .07-.435l5.28-5.923a.445.445 0 0 1 .5-.111 3.571 3.571 0 0 0 3.796-.69c1.003-.95 1.31-2.388.776-3.64-.533-1.253-1.8-2.071-3.208-2.072zM1.734 41.777h38.152c.958 0 1.735-.747 1.735-1.668 0-.92-.777-1.667-1.735-1.667H1.734c-.958 0-1.734.746-1.734 1.667s.776 1.668 1.734 1.668z"/>
    </g>
</svg>
