<?xml version="1.0" encoding="UTF-8"?>
<svg width="100px" height="100px" viewBox="0 0 100 100" version="1.1" xmlns="http://www.w3.org/2000/svg" xmlns:xlink="http://www.w3.org/1999/xlink">
    <!-- Generator: Sketch 58 (84663) - https://sketch.com -->
    <title>Group 21</title>
    <desc>Created with Sketch.</desc>
    <g id="Page-1" stroke="none" stroke-width="1" fill="none" fill-rule="evenodd">
        <g id="Landing" transform="translate(-1108.000000, -2411.000000)">
            <g id="Group-21" transform="translate(1108.000000, 2411.000000)">
                <g id="Group-15" fill-rule="nonzero">
                    <g id="Group-4" opacity="0.778878348" fill="#F1F1F1">
                        <polygon id="Shape" points="50 0 100 50 50 100 0 50"></polygon>
                    </g>
                    <path d="M51.1085,69.22925 C50.9938837,69.116289 50.8266718,69.0750478 50.6726742,69.121758 C50.5186767,69.1684681 50.4025506,69.2956507 50.37,69.45325 L49.271,74.95 C49.2184435,75.2074731 49.2843869,75.4749344 49.4506058,75.6784678 C49.6168247,75.8820012 49.8657176,76.000019 50.1285,76.000019 C50.1872893,76.0003979 50.2459537,75.9945314 50.3035,75.9825 L55.80375,74.88175 C55.9618003,74.8497661 56.0894433,74.7334341 56.1359136,74.5790211 C56.1823839,74.4246081 56.1401465,74.257151 56.026,74.14325 L51.1085,69.22925 Z" id="Path" fill="#0000FF"></path>
                    <path d="M70.649,54.58875 C68.8595,52.8043003 65.9635,52.8043003 64.174,54.58875 L52.799,65.96375 C52.4574158,66.3054374 52.4574158,66.8593126 52.799,67.201 L58.049,72.451 C58.3906874,72.7925842 58.9445626,72.7925842 59.28625,72.451 L70.66125,61.076 C71.5199955,60.2141693 72.0011567,59.0464685 71.9988675,57.8298376 C71.996562,56.6132067 71.5109942,55.4473314 70.649,54.58875 L70.649,54.58875 Z" id="Path" fill="#0000FF"></path>
                    <rect id="Rectangle" fill="#0000FF" x="36.125" y="40.125" width="20.125" height="7.875" rx="0.5"></rect>
                    <path d="M44.21525,50.625 L37,50.625 C36.5167508,50.625 36.125,51.0167508 36.125,51.5 L36.125,62 C36.125,62.4832492 36.5167508,62.875 37,62.875 L47.21475,62.875 C47.489243,62.875 47.7478625,62.7463342 47.9132727,62.5272774 C48.078683,62.3082206 48.1317111,62.0242381 48.0565,61.76025 L45.057,51.26025 C44.9498657,50.8842125 44.6062513,50.625 44.21525,50.625 Z" id="Path" fill="#0000FF"></path>
                    <path d="M51.75775,62.875 C52.0238391,62.875 52.2791746,62.7699768 52.46825,62.58275 L55.73725,59.312 C56.0654614,58.9838877 56.2499009,58.5388409 56.25,58.07475 L56.25,51.5 C56.25,51.0167508 55.8582492,50.6249997 55.375,50.6249997 L48.66025,50.6249997 C48.3853488,50.6247684 48.1263199,50.7537416 47.9608292,50.9732491 C47.7953384,51.1927567 47.7426271,51.4772765 47.8185,51.7415 L50.7935,62.147 C50.9162345,62.5777994 51.3098082,62.875 51.75775,62.875 L51.75775,62.875 Z" id="Path" fill="#0000FF"></path>
                    <path d="M48.50975,65.5 L34.375,65.5 C33.8917508,65.5 33.5,65.1082492 33.5,64.625 L33.5,38.375 C33.5,37.8917508 33.8917508,37.5 34.375,37.5 L58,37.5 C58.4832492,37.5 58.875,37.8917508 58.875,38.375 L58.875,55.11725 C58.874683,55.2944453 58.98128,55.4543337 59.1449696,55.5221863 C59.3086592,55.5900389 59.4971126,55.5524547 59.62225,55.427 L61.8605,53.18875 C62.1887114,52.8606377 62.37325,52.4155909 62.37325,51.9515 L62.37325,37.5 C62.37325,35.5670034 60.8062466,34 58.87325,34 L33.5,34 C31.5670034,34 30,35.5670034 30,37.5 L30,65.5 C30,67.4329966 31.5670034,69 33.5,69 L47.06425,69 C47.48011,69 47.838578,68.707458 47.92175,68.3 L48.00575,67.87825 C48.1317437,67.2635295 48.4199657,66.6937323 48.8405,66.228 C48.9536898,66.0982465 48.9806295,65.9143244 48.9094069,65.7575594 C48.8381844,65.6007944 48.6819357,65.5000998 48.50975,65.5 Z" id="Path" fill="#0000FF"></path>
                </g>
                <g id="design-tool-wireframe" transform="translate(30.000000, 34.000000)"></g>
            </g>
        </g>
    </g>
</svg>