<svg xmlns="http://www.w3.org/2000/svg" width="46" height="40" viewBox="0 0 46 40">
    <g fill="#00F" fill-rule="nonzero">
        <path d="M12.468 25.727c0 .791.641 1.432 1.432 1.432h1.352a.477.477 0 0 1 .458.611l-.382 1.32a1.434 1.434 0 0 0 2.753.793l.687-2.378a.48.48 0 0 1 .458-.346H21.9a.48.48 0 0 1 .46.611l-.382 1.32a1.432 1.432 0 1 0 2.751.793l.69-2.378a.475.475 0 0 1 .458-.346h3.238a1.432 1.432 0 0 0 0-2.864h-2.13a.481.481 0 0 1-.383-.19.473.473 0 0 1-.076-.419l.828-2.863a.48.48 0 0 1 .459-.346h3.21a1.432 1.432 0 0 0 0-2.863h-2.1a.48.48 0 0 1-.46-.61l.125-.425a1.433 1.433 0 0 0-2.753-.794l-.43 1.485a.475.475 0 0 1-.458.344h-2.673a.481.481 0 0 1-.381-.191.473.473 0 0 1-.077-.418l.122-.426a1.432 1.432 0 1 0-2.75-.794l-.43 1.485a.477.477 0 0 1-.458.344h-2.482a1.432 1.432 0 0 0 0 2.863h1.365c.15 0 .292.07.382.191.09.12.118.276.078.42l-.829 2.864a.477.477 0 0 1-.458.343H13.9a1.432 1.432 0 0 0-1.432 1.432zm8.232-4.904a.48.48 0 0 1 .46-.346h2.673a.477.477 0 0 1 .458.611l-.828 2.864a.477.477 0 0 1-.458.343h-2.673a.477.477 0 0 1-.458-.609l.826-2.863z"/>
        <path d="M45.818 6.16A5.727 5.727 0 0 0 40.091.431H5.727A5.727 5.727 0 0 0 0 6.159v27.682a5.727 5.727 0 0 0 5.727 5.727h34.364a5.727 5.727 0 0 0 5.727-5.727V6.159zM18.43 4.25a1.844 1.844 0 0 1 3.23 0c.184.285.286.615.295.955-.01.339-.11.669-.294.954a1.844 1.844 0 0 1-3.23 0 1.85 1.85 0 0 1-.295-.954c.009-.34.11-.67.294-.955zm-6.681 0a1.844 1.844 0 0 1 3.23 0c.183.285.285.615.294.955-.009.339-.11.669-.294.954a1.844 1.844 0 0 1-3.23 0 1.85 1.85 0 0 1-.294-.954c.008-.34.11-.67.294-.955zm-6.8.176a1.91 1.91 0 0 1 1.733-1.13 1.88 1.88 0 0 1 1.615.954c.184.285.285.615.294.955-.009.339-.11.669-.294.954a1.844 1.844 0 0 1-3.23 0 1.85 1.85 0 0 1-.294-.954c.001-.27.061-.535.175-.78zM42 33.84a1.91 1.91 0 0 1-1.91 1.909H5.728a1.91 1.91 0 0 1-1.909-1.91V10.456c0-.264.214-.478.477-.478h37.228c.263 0 .477.214.477.478V33.84z"/>
    </g>
</svg>
