<svg xmlns="http://www.w3.org/2000/svg" width="42" height="40" viewBox="0 0 42 40">
    <g fill="#00F" fill-rule="nonzero" transform="translate(0 -1)">
        <path d="M3.938 6.545H19.25a1.75 1.75 0 0 0 0-3.5H2.765A2.702 2.702 0 0 0 0 5.67v5.25a2.702 2.702 0 0 0 2.765 2.625H19.25a1.75 1.75 0 0 0 0-3.5H3.937a.437.437 0 0 1-.437-.438V6.983c0-.242.196-.438.438-.438zM37.471 12.665a.436.436 0 0 1-.075-.525 7.318 7.318 0 1 0-2.921 2.926.44.44 0 0 1 .525.073l4.016 4.025a1.75 1.75 0 0 0 2.475-2.474l-4.02-4.025zm-6.496-.205a3.815 3.815 0 1 1 0-7.63 3.815 3.815 0 0 1 0 7.63z"/>
        <circle cx="2.625" cy="29.295" r="2.625"/>
        <circle cx="2.625" cy="38.045" r="2.625"/>
        <path d="M25.375 27.545H8.75a1.75 1.75 0 0 0 0 3.5h16.625a1.75 1.75 0 0 0 0-3.5z"/>
        <circle cx="2.625" cy="20.545" r="2.625"/>
        <path d="M25.375 18.795H8.75a1.75 1.75 0 0 0 0 3.5h16.625a1.75 1.75 0 0 0 0-3.5zM25.375 36.295H8.75a1.75 1.75 0 0 0 0 3.5h16.625a1.75 1.75 0 0 0 0-3.5z"/>
    </g>
</svg>
