<svg xmlns="http://www.w3.org/2000/svg" width="42" height="42" viewBox="0 0 42 42">
    <path fill="#00F" fill-rule="nonzero" d="M41.545 5.99a.875.875 0 0 0-1.449-.35L35.81 9.933a.875.875 0 0 1-.619.257h-2.47a.875.875 0 0 1-.874-.875V6.839c0-.232.093-.454.257-.617l4.293-4.302a.875.875 0 0 0-.333-1.449 8.736 8.736 0 0 0-11.375 10.08.864.864 0 0 1-.224.802L11.352 24.469a.875.875 0 0 1-.803.224A8.736 8.736 0 0 0 .471 36.068a.875.875 0 0 0 1.45.327l4.304-4.303a.875.875 0 0 1 .614-.247h2.475c.483 0 .875.392.875.875v2.475a.875.875 0 0 1-.256.617l-4.286 4.284a.875.875 0 0 0 .35 1.45 8.81 8.81 0 0 0 2.778.45A8.74 8.74 0 0 0 17.3 31.45a.875.875 0 0 1 .224-.801L30.65 17.525a.875.875 0 0 1 .801-.226A8.738 8.738 0 0 0 41.545 5.987v.004z"/>
</svg>
